<svg width="289" height="80" viewBox="0 0 289 80" fill="none" xmlns="http://www.w3.org/2000/svg">
<g clip-path="url(#clip0_1_15)">
<path d="M23.049 26.5119V0.675165C23.049 0.156364 22.4871 -0.168691 22.0372 0.0917853L1.01176 12.4117C0.385329 12.7733 0 13.4407 0 14.164V40.0007L21.7014 52.7382C22.5366 53.2204 23.5634 53.2204 24.3987 52.7382L45.7621 40.5841C46.212 40.3236 46.212 39.6756 45.7621 39.4152L23.049 26.5119Z" fill="black"/>
<path d="M45.7621 40.5819L24.3987 52.7361C23.5634 53.2183 22.5366 53.2183 21.7014 52.7361L0 39.9985V65.056C0 66.2615 0.643654 67.3744 1.68556 67.9772L21.7014 79.5479C22.7454 80.1507 23.3546 80.1507 24.3987 79.5479L44.4145 67.9772C45.4586 67.3744 46.1001 66.2615 46.1001 65.056V39.9985C46.0979 40.2267 45.986 40.4528 45.7621 40.5819Z" fill="#888888"/>
<path d="M69.1489 27H86.0132C95.3537 27 100.208 31.004 100.208 37.4341C100.208 41.9828 98.0252 45.1989 93.778 45.9868V46.0471C98.7528 46.7747 101.724 50.1717 101.724 55.3295C101.724 62.4873 97.2955 66.9154 87.4081 66.9154H69.1489V27ZM86.6784 44.1054C91.41 44.1054 93.7155 42.0431 93.7155 38.5234C93.7155 34.9456 91.4121 32.7003 85.9507 32.7003H76.4272V44.1054H86.6784ZM87.2854 61.2129C92.7447 61.2129 94.807 58.6641 94.807 54.6019C94.807 51.1447 92.0171 48.8391 87.0422 48.8391H76.4272V61.215H87.2854V61.2129Z" fill="black"/>
<path d="M132.165 53.2651H109.721C110.085 59.0279 113.299 62.1213 118.396 62.1213C122.764 62.1213 125.737 60.1796 126.04 56.6621H132.167C131.924 63.3354 126.465 67.3997 118.276 67.3997C108.812 67.3997 102.867 61.5767 102.867 52.1737C102.867 42.4672 108.812 36.4611 118.276 36.4611C126.768 36.4611 132.167 41.4963 132.167 50.8368V53.2651H132.165ZM126.038 48.7164C126.038 44.2281 123.248 41.7395 118.334 41.7395C113.662 41.7395 110.692 44.1656 109.902 49.1405H126.038V48.7164Z" fill="black"/>
<path d="M133.308 51.9304C133.308 42.3466 139.314 36.4611 148.351 36.4611C156.723 36.4611 162.182 41.3133 162.182 49.2611H156.056C155.995 44.7727 153.085 42.0431 148.534 42.0431C143.318 42.0431 140.102 45.7436 140.102 51.9304C140.102 58.057 143.258 61.8178 148.291 61.8178C153.083 61.8178 156.056 59.1484 156.116 54.7203H162.242C162.242 62.7284 156.54 67.3997 147.987 67.3997C139.191 67.3997 133.308 61.5164 133.308 51.9304Z" fill="black"/>
<path d="M163.192 51.9907C163.192 42.4069 169.318 36.4611 178.842 36.4611C188.426 36.4611 194.552 42.4069 194.552 51.9907C194.552 61.5142 188.426 67.3997 178.842 67.3997C169.318 67.3997 163.192 61.5164 163.192 51.9907ZM187.761 51.9907C187.761 45.8641 184.364 42.0431 178.844 42.0431C173.325 42.0431 169.988 45.8641 169.988 51.9907C169.988 58.057 173.325 61.8178 178.844 61.8178C184.364 61.8178 187.761 58.057 187.761 51.9907Z" fill="black"/>
<path d="M196.662 36.9476H203.456L203.213 44.833H203.273C204.608 39.6772 208.248 36.4611 213.707 36.4611C219.53 36.4611 223.293 39.4943 224.018 44.3465H224.079C225.17 39.4943 228.81 36.4611 234.513 36.4611C241.186 36.4611 245.007 40.7687 245.007 47.8059V66.9132H238.213V49.3214C238.213 44.9535 236.091 42.2842 232.026 42.2842C227.295 42.2842 224.262 45.8017 224.262 52.051V66.9132H217.468V49.2008C217.468 44.9535 215.223 42.2863 211.16 42.2863C206.549 42.2863 203.456 45.8641 203.456 52.2942V66.9132H196.662V36.9476Z" fill="black"/>
<path d="M276.193 53.2651H253.749C254.113 59.0279 257.327 62.1213 262.425 62.1213C266.793 62.1213 269.765 60.1796 270.069 56.6621H276.196C275.952 63.3354 270.493 67.3997 262.304 67.3997C252.841 67.3997 246.895 61.5767 246.895 52.1737C246.895 42.4672 252.841 36.4611 262.304 36.4611C270.797 36.4611 276.196 41.4963 276.196 50.8368V53.2651H276.193ZM270.067 48.7164C270.067 44.2281 267.277 41.7395 262.362 41.7395C257.691 41.7395 254.72 44.1656 253.93 49.1405H270.067V48.7164Z" fill="black"/>
<path d="M280.244 34.1449V29.4276H282.635C282.827 29.4276 283.036 29.483 283.261 29.5938C283.487 29.7003 283.679 29.8665 283.837 30.0923C283.999 30.3139 284.08 30.5952 284.08 30.9361C284.08 31.2812 283.996 31.5753 283.83 31.8182C283.664 32.0568 283.462 32.2379 283.223 32.3615C282.989 32.4851 282.767 32.5469 282.558 32.5469H280.832V31.7798H282.239C282.379 31.7798 282.531 31.7095 282.692 31.5689C282.859 31.4283 282.942 31.2173 282.942 30.9361C282.942 30.6463 282.859 30.4503 282.692 30.348C282.531 30.2457 282.388 30.1946 282.264 30.1946H281.28V34.1449H280.244ZM283.095 31.9205L284.271 34.1449H283.134L281.983 31.9205H283.095ZM282.034 36.9574C281.327 36.9574 280.664 36.8253 280.046 36.5611C279.428 36.2969 278.885 35.9304 278.416 35.4616C277.947 34.9929 277.581 34.4496 277.317 33.8317C277.053 33.2138 276.92 32.5511 276.92 31.8438C276.92 31.1364 277.053 30.4737 277.317 29.8558C277.581 29.2379 277.947 28.6946 278.416 28.2259C278.885 27.7571 279.428 27.3906 280.046 27.1264C280.664 26.8622 281.327 26.7301 282.034 26.7301C282.741 26.7301 283.404 26.8622 284.022 27.1264C284.64 27.3906 285.183 27.7571 285.652 28.2259C286.121 28.6946 286.487 29.2379 286.751 29.8558C287.016 30.4737 287.148 31.1364 287.148 31.8438C287.148 32.5511 287.016 33.2138 286.751 33.8317C286.487 34.4496 286.121 34.9929 285.652 35.4616C285.183 35.9304 284.64 36.2969 284.022 36.5611C283.404 36.8253 282.741 36.9574 282.034 36.9574ZM282.034 35.7301C282.75 35.7301 283.402 35.5554 283.99 35.206C284.578 34.8565 285.047 34.3878 285.396 33.7997C285.746 33.2116 285.92 32.5597 285.92 31.8438C285.92 31.1278 285.746 30.4759 285.396 29.8878C285.047 29.2997 284.578 28.831 283.99 28.4815C283.402 28.1321 282.75 27.9574 282.034 27.9574C281.318 27.9574 280.666 28.1321 280.078 28.4815C279.49 28.831 279.021 29.2997 278.672 29.8878C278.322 30.4759 278.148 31.1278 278.148 31.8438C278.148 32.5597 278.322 33.2116 278.672 33.7997C279.021 34.3878 279.49 34.8565 280.078 35.206C280.666 35.5554 281.318 35.7301 282.034 35.7301Z" fill="black"/>
</g>
<defs>
<clipPath id="clip0_1_15">
<rect width="289" height="80" fill="white"/>
</clipPath>
</defs>
</svg>
